<?xml version="1.0" encoding="iso-8859-1"?>
<!-- Generator: Adobe Illustrator 16.2.0, SVG Export Plug-In . SVG Version: 6.00 Build 0)  -->
<!DOCTYPE svg PUBLIC "-//W3C//DTD SVG 1.1//EN" "http://www.w3.org/Graphics/SVG/1.1/DTD/svg11.dtd">
<svg version="1.1" xmlns="http://www.w3.org/2000/svg" xmlns:xlink="http://www.w3.org/1999/xlink" x="0px" y="0px" width="1024px"
	 height="768px" viewBox="0 0 1024 768" style="enable-background:new 0 0 1024 768;" xml:space="preserve">
<g id="background">
	<rect width="1024" height="768"/>
</g>
<g id="barrelhole">
	<circle style="fill:#CCCCCC;" cx="579.59" cy="381.256" r="227.498"/>
</g>
<g id="walk00">
	<g>
		<path d="M558.845,529.575c-3.282-5.13-0.967-25.969-0.324-33c1.018-11.135,2.399-22.289,3.747-33.333
			c1.302-10.658,2.018-21.296,4.461-31.333c2.538-10.43,5.041-20.204,7.255-30.667c4.106-19.421,9.885-38.263,15.369-56.666
			c2.698-9.052,4.583-20.059,7.987-28.686c4.736-12.001,7.773-1.879,10.835,6.85c11.4,32.506,22.84,71.239,28.299,107.169
			c3.089,20.341,5.438,39.342,7.385,60.666c1.021,11.188,0.447,16.089-0.665,26.55c-1.2,11.296-19.637,22.109-26.879,22.119
			c-24.732,0.033-29.021-5.378-39.268-4.817C571.423,534.734,562.439,534.647,558.845,529.575"/>
		<ellipse cx="562.542" cy="409.635" rx="29.918" ry="37"/>
	</g>
</g>
<g id="walk01">
	<g>
		<path d="M549.33,529.575c-3.641-5.13-1.072-25.969-0.359-33c1.129-11.135,2.662-22.289,4.157-33.333
			c1.444-10.658,2.237-21.296,4.948-31.333c2.816-10.43,5.593-20.204,8.049-30.667c4.557-19.421,10.967-38.263,17.052-56.666
			c2.993-9.052,5.085-20.059,8.861-28.686c5.255-12.001,8.624-1.88,12.021,6.85c12.648,32.506,25.342,71.239,31.398,107.169
			c3.428,20.341,6.035,39.342,8.193,60.666c1.133,11.188-0.133,21.539-1.367,32c-1.332,11.296-21.158,16.659-29.193,16.669
			c-27.439,0.033-23.988-3.42-30.488-12.42c-4.68-6.479-6.395,2.644-13.078,7.603C564.7,538.007,553.318,534.647,549.33,529.575"/>
		<ellipse cx="562.841" cy="409.635" rx="29.917" ry="37"/>
	</g>
</g>
<g id="walk02">
	<g>
		<path d="M527.469,529.543c-4.865-5.13-1.434-25.969-0.48-33c1.51-11.135,3.557-22.289,5.557-33.333
			c1.929-10.658,2.988-21.296,6.611-31.333c3.764-10.43,7.475-20.204,10.754-30.667c6.09-19.421,14.656-38.263,22.787-56.666
			c4-9.052,6.794-20.059,11.841-28.686c7.022-12.002,11.523-1.88,16.063,6.85c16.901,32.506,33.86,71.239,41.952,107.169
			c4.581,20.341,8.064,39.342,10.949,60.666c1.515,11.188-0.178,21.539-1.826,32c-1.781,11.296-8.35,15.973-19.045,16.669
			c-9.18,0.599-15.554-7.16-24.107-10.503c-8.461-3.307-18.816-4.446-27.553-3.483c-10.277,1.132-17.586,4.21-26.517,9.169
			C548.008,537.975,532.798,534.615,527.469,529.543"/>
		<ellipse cx="559.59" cy="407.014" rx="29.917" ry="37"/>
	</g>
</g>
<g id="walk03">
	<g>
		<ellipse cx="566.971" cy="402.635" rx="29.917" ry="37"/>
		<path d="M638.056,529.575c3.642-5.13,1.073-25.969,0.359-33c-1.13-11.135-2.661-22.289-4.157-33.333
			c-1.444-10.658-2.237-21.296-4.947-31.333c-2.817-10.43-5.594-20.204-8.049-30.667c-4.557-19.421-10.969-38.263-17.053-56.666
			c-2.993-9.052-5.084-20.059-8.861-28.686c-5.255-12.001-8.624-1.88-12.021,6.85c-12.647,32.506-25.341,71.239-31.396,107.169
			c-3.429,20.341-6.035,39.342-8.194,60.666c-1.134,11.188,0.133,21.539,1.367,32c1.332,11.296,21.157,16.659,29.191,16.669
			c27.44,0.033,23.988-3.42,30.488-12.42c4.68-6.479,6.394,2.644,13.077,7.603C622.686,538.007,634.068,534.647,638.056,529.575"/>
	</g>
</g>
<g id="walk04">
	<g>
		<path d="M642.67,529.575c3.283-5.13,0.967-25.969,0.324-33c-1.018-11.135-2.398-22.289-3.746-33.333
			c-1.303-10.658-2.018-21.296-4.461-31.333c-2.538-10.43-5.041-20.204-7.254-30.667c-4.107-19.421-9.885-38.263-15.369-56.666
			c-2.698-9.052-4.582-20.059-7.986-28.686c-4.736-12.001-7.773-1.879-10.835,6.85c-11.399,32.506-22.839,71.239-28.298,107.169
			c-3.088,20.341-5.438,39.342-7.384,60.666c-1.021,11.188-0.447,16.089,0.665,26.55c1.199,11.296,19.635,22.109,26.877,22.119
			c24.731,0.033,29.021-5.378,39.266-4.817C630.093,534.734,639.076,534.647,642.67,529.575"/>
		<ellipse cx="562.543" cy="409.635" rx="29.917" ry="37"/>
	</g>
</g>
<g id="dukestand">
	<path d="M522.167,528c-5.412-5.13-1.595-25.969-0.534-33c1.679-11.135,3.956-22.289,6.18-33.333
		c2.146-10.658,3.325-21.296,7.354-31.333c4.188-10.43,8.314-20.204,11.964-30.667c6.773-19.421,16.304-38.264,25.348-56.667
		c4.449-9.052,7.558-20.059,13.172-28.686c7.812-12.002,12.819-1.88,17.868,6.85c18.801,32.505,37.667,71.24,46.669,107.17
		c5.096,20.341,8.97,39.342,12.18,60.666c1.685,11.188-0.197,21.539-2.032,32c-1.98,11.296-9.287,15.973-21.185,16.669
		c-10.212,0.599-17.303-7.16-26.817-10.503c-9.413-3.307-20.933-4.446-30.65-3.483c-11.433,1.132-19.563,4.21-29.498,9.169
		C545.014,536.432,528.095,533.072,522.167,528"/>
	<path d="M639.001,436c-0.62,2.9,0.604,6.756,2.454,9.037c1.395,1.72,4.316,4.575,6.712,4.63c2.353,0.054,5.566-2.08,6.834-3.996
		c1.408-2.129,1.965-5.536,4.5-6.54c4.109-1.629,9.584,4.935,12.198,7.528c1.816,1.801,3.546,3.961,5.094,6.013
		c0.717,0.95,1.355,1.983,2.078,2.949c1.022,1.365,1.475,1.456,0.676,2.912c-2.825,5.145-9.499,6.938-14.037,9.842
		c-5.277,3.378-8.195,10.666-9.635,16.491c-1.378,5.575-1.659,10.883-0.745,16.467c0.328,2.002,0.521,4.778,1.826,6.375
		c0.745,0.912,1.825,1.556,2.545,2.574c1.283,1.817,1.763,2.213,3.937,2.434c2.394,0.243,4.814,0.748,7.229,0.617
		c2.476-0.135,5.515-0.393,7.621-1.708c2.157-1.347,3.643-3.216,4.842-5.495c1.234-2.346,2.939-4.236,3.578-6.797
		c0.286-1.148,0.598-2.945,0.293-4.166c-0.423-1.696-1.241-1.305-2.676-2c-2.088-1.012-4.533-2.681-6.329-4.125
		c-3.518-2.829-3.784-10.549-1.207-14.246c1.45-2.08,3.915-3.545,5.666-5.5c1.732-1.934,3.729-3.774,5.208-5.833
		c1.41-1.964,3.461-5.229,1.545-7.638c-1.386-1.742-4.26-2.605-5.999-4.199c-3.83-3.511-7.242-7.314-10.875-10.959
		c-1.995-2.001-4.617-3.591-6.999-5.13c-2.218-1.433-4.005-3.238-5.96-5.078c-1.83-1.723-3.628-3.503-5.541-5.135
		c-1.902-1.622-4.131-4.54-6.667-4.995c-6.166-1.107-8.232,5.6-9.666,10.004"/>
	<circle cx="517.334" cy="403.666" r="9.5"/>
	<rect x="512" y="408.847" width="9.834" height="23.152"/>
	<path d="M526.334,451.5c1.301-1.661,1.489-3.622,3.543-4.281c1.708-0.549,3.382-0.798,4.961-1.844
		c1.618-1.073,3.105-2.629,4.663-3.87c2.019-1.609,3.565-3.087,3.5-5.838c-0.053-2.196-0.707-4.695-2.491-6.171
		c-4.93-4.075-11.857,3.082-13.508,7.337c-0.985,2.54-1.344,5.142-2.714,7.667c-1.121,2.066-2.313,4.613-3.829,6.458
		c-3.026,3.686-0.797-0.396-2.292-2.958c-1.167-2-0.591-2.673-1.25-5.167c-0.646-2.449-0.671-6.247-1.25-8.666
		c-0.906-3.783,0.14-5.338,2.843-5.87c2.897-0.57,3.906,1.917,5.097-1.125c1.019-2.604,2.053-7.704,1.02-10.297
		c-2.34-5.869-9.544-3.187-13.771-1.539c-4.162,1.622-2.307,10.584-2.688,14.497c-0.27,2.767,2.01,4.785,2.167,7.472
		c0.179,3.075,4.055,17.118,4.667,18.362c0.681,1.386,2.192,3.347,3.102,4.547C521.519,464.723,524.598,453.717,526.334,451.5z"/>
</g>
<g id="riffle">
	<path style="fill:#666666;stroke:#000000;stroke-width:5;" d="M1006.987,363.091c-5.494-8.742-20.582-12.789-28.576-19.456
		c-19.253-16.058-35.567-43.103-40.498-67.54c-5.187-25.701-1.72-53.582-11.999-77.996c-11.26-26.741-39.737-44.698-54.742-68.919
		c-8.644-13.952-12.052-26.168-23.665-37.904c-9.156-9.252-18.528-17.863-25.793-29.376c-14.814-23.477-26.463-33.464-55.537-34.797
		c-25.837-1.185-52.127-7.497-77.59-2.661c-33.833,6.425-64.921,1.328-99.358,4.088c-57.112,4.578-111.524,0.078-169.121,0.078
		c-53.403,0-135.831,7.349-167.997,56.997l4.5-1.5c-28.143,9.965-24.902,39.064-18.37,60.296
		c7.755,25.208,5.397,41.226-6.755,64.571c-11.485,22.065-24.268,40.712-31.461,65.623c-7.924,27.444-6.148,52.159,5.218,78.33
		c19.938,45.911,44.863,92.812,60.736,140.583c20.531,61.788,45.624,132.936,107.626,162.446
		c23.909,11.379,49.143,24.152,75.002,28.116c13.117,2.01,25.106,0.33,37.493,3.01c13.693,2.964,27.013,9.989,40.499,13.868
		c45.823,13.178,117.21,33.85,162.071,7.537c22.341-13.104,44.745-26.662,67.415-40.532c23.524-14.395,53.345-22.086,79.501-30.332
		c24.308-7.664,47.72-6.737,70.085-21.413c23.252-15.258,40.468-33.238,52.913-58.126c25.543-51.078,43.651-104.376,49.416-160.569
		C1009.017,387.589,1012.854,372.426,1006.987,363.091z M582.007,563.241c-98.996,0-179.245-80.248-179.245-179.241
		c0-98.992,80.249-179.241,179.245-179.241c98.992,0,179.241,80.249,179.241,179.241
		C761.248,482.993,680.999,563.241,582.007,563.241z"/>
	<path style="fill:none;stroke:#FFFFFF;stroke-width:5;" d="M563.541,202.729c0,0-293.125-92.729-441.043,9.319"/>
	<path style="fill:none;stroke:#FFFFFF;stroke-width:5;" d="M475.431,234.951c0,0-301.431,67.983-377.059,229.874"/>
	<path style="fill:none;stroke:#000000;stroke-width:5;" d="M492.67,228.759c0,0-329.028,65.024-394.298,236.065"/>
	<path style="fill:none;stroke:#000000;stroke-width:5;" d="M582.007,204.759c0,0-317.462-108.202-459.509,7.289"/>
	<path style="fill:none;stroke:#FFFFFF;stroke-width:5;" d="M415.669,307.977c0,0-222.508,205.023-214.44,386.586"/>
	<path style="fill:none;stroke:#000000;stroke-width:5;" d="M426.67,293.976c0,0-252.436,220.827-223.44,401.587"/>
	<path style="fill:none;stroke:#FFFFFF;stroke-width:5;" d="M400.763,408.002c0,0-86.973,286.562,9.289,435.504"/>
	<path style="fill:none;stroke:#000000;stroke-width:5;" d="M402.762,384c0,0-108.202,317.459,7.289,459.506"/>
	<path style="fill:none;stroke:#FFFFFF;stroke-width:5;" d="M434.862,492.239c0,0,57.808,284.761,227.877,376.059"/>
	<path style="fill:none;stroke:#000000;stroke-width:5;" d="M426.67,473.999c0,0,65.024,329.029,236.069,394.299"/>
	<path style="fill:none;stroke:#FFFFFF;stroke-width:5;" d="M513.854,555.229c0,0,196.146,219.771,379.408,207.21"/>
	<path style="fill:none;stroke:#000000;stroke-width:5;" d="M492.67,538.999c0,0,220.83,252.436,401.592,223.44"/>
	<path style="fill:none;stroke:#FFFFFF;stroke-width:5;" d="M600.729,566.626c0,0,293.532,85.253,440.783-10.674"/>
	<path style="fill:none;stroke:#000000;stroke-width:5;" d="M582.007,563.241c0,0,317.459,108.202,459.506-7.289"/>
	<path style="fill:none;stroke:#FFFFFF;stroke-width:5;" d="M693.249,531.805c0,0,316.924-77.805,373.057-228.871"/>
	<path style="fill:none;stroke:#000000;stroke-width:5;" d="M672.007,538.999c0,0,329.029-65.024,394.299-236.065"/>
	<path style="fill:none;stroke:#FFFFFF;stroke-width:5;" d="M749.819,458.527c0,0,216.208-198.527,212.771-378.26"/>
	<path style="fill:none;stroke:#000000;stroke-width:5;" d="M737.96,472.999c0,0,252.436-220.827,223.44-401.588"/>
	<path style="fill:none;stroke:#FFFFFF;stroke-width:5;" d="M763.277,364.535c0,0,92.948-284.268-9.318-440.041"/>
	<path style="fill:none;stroke:#000000;stroke-width:5;" d="M761.248,384c0,0,108.202-317.459-7.289-459.505"/>
	<path style="fill:none;stroke:#FFFFFF;stroke-width:5;" d="M728.766,275.736c0,0-66.026-294.736-226.875-376.059"/>
	<path style="fill:none;stroke:#000000;stroke-width:5;" d="M737.96,293.976c0,0-65.024-329.029-236.069-394.299"/>
	<path style="fill:none;stroke:#FFFFFF;stroke-width:5;" d="M655.823,214.77c0,0-208.823-226.77-385.408-209.451"/>
	<path style="fill:none;stroke:#000000;stroke-width:5;" d="M672.007,228.759c0,0-220.831-252.436-401.591-223.44"/>
</g>
<g id="blood">
	<linearGradient id="SVGID_1_" gradientUnits="userSpaceOnUse" x1="512.0005" y1="-55.4834" x2="512.0004" y2="-1700">
		<stop  offset="0" style="stop-color:#FF0000;stop-opacity:0.5"/>
		<stop  offset="0.5" style="stop-color:#000000"/>
	</linearGradient>
	<path style="fill:url(#SVGID_1_);" d="M1024-199.947c0,0-48,47.947-82,45.947s-40.445-22-62.223-18S839.52-55.971,811.76-55.485
		S774.92-150,737.96-151s-22.313,14.541-82.137,11.771S604.602-213,548.801-234s-176.676,59.997-226.238,73.999
		s-59.563,9.107-97.563-39.946S153-157,104-159S0-199.947,0-199.947V-1700h1024V-199.947z"/>
</g>
</svg>
